<mxfile host="65bd71144e">
    <diagram name="Page-1" id="2YBvvXClWsGukQMizWep">
        <mxGraphModel dx="807" dy="500" grid="1" gridSize="10" guides="1" tooltips="1" connect="1" arrows="1" fold="1" page="1" pageScale="1" pageWidth="850" pageHeight="1100" math="0" shadow="0">
            <root>
                <mxCell id="0"/>
                <mxCell id="1" parent="0"/>
                <mxCell id="aM9ryv3xv72pqoxQDRHE-1" value="Пользователь" style="shape=umlLifeline;perimeter=lifelinePerimeter;whiteSpace=wrap;html=1;container=0;dropTarget=0;collapsible=0;recursiveResize=0;outlineConnect=0;portConstraint=eastwest;newEdgeStyle={&quot;edgeStyle&quot;:&quot;elbowEdgeStyle&quot;,&quot;elbow&quot;:&quot;vertical&quot;,&quot;curved&quot;:0,&quot;rounded&quot;:0};" parent="1" vertex="1">
                    <mxGeometry x="215" y="160" width="100" height="530" as="geometry"/>
                </mxCell>
                <mxCell id="Yv3p3Jwk4be05olFa2Mg-4" value="" style="html=1;points=[];perimeter=orthogonalPerimeter;outlineConnect=0;targetShapes=umlLifeline;portConstraint=eastwest;newEdgeStyle={&quot;edgeStyle&quot;:&quot;elbowEdgeStyle&quot;,&quot;elbow&quot;:&quot;vertical&quot;,&quot;curved&quot;:0,&quot;rounded&quot;:0};" parent="aM9ryv3xv72pqoxQDRHE-1" vertex="1">
                    <mxGeometry x="45" y="277" width="10" height="66" as="geometry"/>
                </mxCell>
                <mxCell id="aM9ryv3xv72pqoxQDRHE-5" value="Оркестратор" style="shape=umlLifeline;perimeter=lifelinePerimeter;whiteSpace=wrap;html=1;container=0;dropTarget=0;collapsible=0;recursiveResize=0;outlineConnect=0;portConstraint=eastwest;newEdgeStyle={&quot;edgeStyle&quot;:&quot;elbowEdgeStyle&quot;,&quot;elbow&quot;:&quot;vertical&quot;,&quot;curved&quot;:0,&quot;rounded&quot;:0};" parent="1" vertex="1">
                    <mxGeometry x="535" y="160" width="100" height="530" as="geometry"/>
                </mxCell>
                <mxCell id="aM9ryv3xv72pqoxQDRHE-7" value="отправка выражения на вычисление&lt;div&gt;&lt;div style=&quot;font-family: Menlo, Monaco, &amp;quot;Courier New&amp;quot;, monospace; font-size: 12px; line-height: 18px; white-space-collapse: preserve;&quot;&gt;POST /api/v1/calculate&lt;/div&gt;&lt;/div&gt;" style="html=1;verticalAlign=bottom;endArrow=block;edgeStyle=elbowEdgeStyle;elbow=vertical;curved=0;rounded=0;" parent="1" edge="1">
                    <mxGeometry relative="1" as="geometry">
                        <mxPoint x="270" y="443" as="sourcePoint"/>
                        <Array as="points">
                            <mxPoint x="355" y="443"/>
                        </Array>
                        <mxPoint x="580" y="443" as="targetPoint"/>
                        <mxPoint as="offset"/>
                    </mxGeometry>
                </mxCell>
                <mxCell id="Yv3p3Jwk4be05olFa2Mg-3" value="&lt;font style=&quot;font-size: 10px;&quot;&gt;ответ от оркестратора&lt;/font&gt;&lt;div style=&quot;font-size: 10px;&quot;&gt;&lt;div style=&quot;font-family: Menlo, Monaco, &amp;quot;Courier New&amp;quot;, monospace; line-height: 18px; white-space-collapse: preserve;&quot;&gt;&lt;div style=&quot;&quot;&gt;&lt;font style=&quot;font-size: 10px;&quot;&gt;{&quot;id&quot;: &amp;lt;уникальный идентификатор выражения&amp;gt;}&lt;/font&gt;&lt;/div&gt;&lt;/div&gt;&lt;/div&gt;" style="html=1;verticalAlign=bottom;endArrow=block;edgeStyle=elbowEdgeStyle;elbow=vertical;curved=0;rounded=0;" parent="1" edge="1">
                    <mxGeometry relative="1" as="geometry">
                        <mxPoint x="580" y="493" as="sourcePoint"/>
                        <Array as="points">
                            <mxPoint x="345.5" y="493"/>
                        </Array>
                        <mxPoint x="270" y="493" as="targetPoint"/>
                        <mxPoint as="offset"/>
                    </mxGeometry>
                </mxCell>
                <mxCell id="Yv3p3Jwk4be05olFa2Mg-6" value="" style="html=1;points=[];perimeter=orthogonalPerimeter;outlineConnect=0;targetShapes=umlLifeline;portConstraint=eastwest;newEdgeStyle={&quot;edgeStyle&quot;:&quot;elbowEdgeStyle&quot;,&quot;elbow&quot;:&quot;vertical&quot;,&quot;curved&quot;:0,&quot;rounded&quot;:0};" parent="1" vertex="1">
                    <mxGeometry x="261" y="535" width="10" height="66" as="geometry"/>
                </mxCell>
                <mxCell id="Yv3p3Jwk4be05olFa2Mg-7" value="" style="html=1;points=[];perimeter=orthogonalPerimeter;outlineConnect=0;targetShapes=umlLifeline;portConstraint=eastwest;newEdgeStyle={&quot;edgeStyle&quot;:&quot;elbowEdgeStyle&quot;,&quot;elbow&quot;:&quot;vertical&quot;,&quot;curved&quot;:0,&quot;rounded&quot;:0};" parent="1" vertex="1">
                    <mxGeometry x="581" y="535" width="10" height="66" as="geometry"/>
                </mxCell>
                <mxCell id="Yv3p3Jwk4be05olFa2Mg-8" value="получение списка выражений&lt;div&gt;&lt;div style=&quot;font-family: Menlo, Monaco, &amp;quot;Courier New&amp;quot;, monospace; font-size: 12px; line-height: 18px; white-space-collapse: preserve;&quot;&gt;GET /api/v1/exspressions&lt;/div&gt;&lt;/div&gt;" style="html=1;verticalAlign=bottom;endArrow=block;edgeStyle=elbowEdgeStyle;elbow=vertical;curved=0;rounded=0;" parent="1" edge="1">
                    <mxGeometry relative="1" as="geometry">
                        <mxPoint x="271" y="541" as="sourcePoint"/>
                        <Array as="points">
                            <mxPoint x="356" y="541"/>
                        </Array>
                        <mxPoint x="581" y="541" as="targetPoint"/>
                        <mxPoint as="offset"/>
                    </mxGeometry>
                </mxCell>
                <mxCell id="Yv3p3Jwk4be05olFa2Mg-9" value="&lt;font style=&quot;font-size: 10px;&quot;&gt;ответ от оркестратора&lt;/font&gt;" style="html=1;verticalAlign=bottom;endArrow=block;edgeStyle=elbowEdgeStyle;elbow=vertical;curved=0;rounded=0;" parent="1" edge="1">
                    <mxGeometry relative="1" as="geometry">
                        <mxPoint x="581" y="591" as="sourcePoint"/>
                        <Array as="points">
                            <mxPoint x="346.5" y="591"/>
                        </Array>
                        <mxPoint x="271" y="591" as="targetPoint"/>
                        <mxPoint as="offset"/>
                    </mxGeometry>
                </mxCell>
                <mxCell id="Yv3p3Jwk4be05olFa2Mg-10" value="" style="html=1;points=[];perimeter=orthogonalPerimeter;outlineConnect=0;targetShapes=umlLifeline;portConstraint=eastwest;newEdgeStyle={&quot;edgeStyle&quot;:&quot;elbowEdgeStyle&quot;,&quot;elbow&quot;:&quot;vertical&quot;,&quot;curved&quot;:0,&quot;rounded&quot;:0};" parent="1" vertex="1">
                    <mxGeometry x="261" y="630" width="10" height="66" as="geometry"/>
                </mxCell>
                <mxCell id="Yv3p3Jwk4be05olFa2Mg-11" value="" style="html=1;points=[];perimeter=orthogonalPerimeter;outlineConnect=0;targetShapes=umlLifeline;portConstraint=eastwest;newEdgeStyle={&quot;edgeStyle&quot;:&quot;elbowEdgeStyle&quot;,&quot;elbow&quot;:&quot;vertical&quot;,&quot;curved&quot;:0,&quot;rounded&quot;:0};" parent="1" vertex="1">
                    <mxGeometry x="581" y="630" width="10" height="66" as="geometry"/>
                </mxCell>
                <mxCell id="Yv3p3Jwk4be05olFa2Mg-12" value="получение одного выражения&lt;div&gt;&lt;div style=&quot;font-family: Menlo, Monaco, &amp;quot;Courier New&amp;quot;, monospace; font-size: 12px; line-height: 18px; white-space-collapse: preserve;&quot;&gt;GET /api/v1/exspressions&lt;/div&gt;&lt;/div&gt;" style="html=1;verticalAlign=bottom;endArrow=block;edgeStyle=elbowEdgeStyle;elbow=vertical;curved=0;rounded=0;" parent="1" edge="1">
                    <mxGeometry relative="1" as="geometry">
                        <mxPoint x="271" y="636" as="sourcePoint"/>
                        <Array as="points">
                            <mxPoint x="356" y="636"/>
                        </Array>
                        <mxPoint x="581" y="636" as="targetPoint"/>
                        <mxPoint as="offset"/>
                    </mxGeometry>
                </mxCell>
                <mxCell id="Yv3p3Jwk4be05olFa2Mg-13" value="&lt;font style=&quot;font-size: 10px;&quot;&gt;ответ от оркестратора&lt;/font&gt;" style="html=1;verticalAlign=bottom;endArrow=block;edgeStyle=elbowEdgeStyle;elbow=vertical;curved=0;rounded=0;" parent="1" edge="1">
                    <mxGeometry relative="1" as="geometry">
                        <mxPoint x="581" y="686" as="sourcePoint"/>
                        <Array as="points">
                            <mxPoint x="346.5" y="686"/>
                        </Array>
                        <mxPoint x="271" y="686" as="targetPoint"/>
                        <mxPoint as="offset"/>
                    </mxGeometry>
                </mxCell>
                <mxCell id="Yv3p3Jwk4be05olFa2Mg-5" value="" style="html=1;points=[];perimeter=orthogonalPerimeter;outlineConnect=0;targetShapes=umlLifeline;portConstraint=eastwest;newEdgeStyle={&quot;edgeStyle&quot;:&quot;elbowEdgeStyle&quot;,&quot;elbow&quot;:&quot;vertical&quot;,&quot;curved&quot;:0,&quot;rounded&quot;:0};" parent="1" vertex="1">
                    <mxGeometry x="580" y="437" width="10" height="66" as="geometry"/>
                </mxCell>
                <mxCell id="Yv3p3Jwk4be05olFa2Mg-20" value="Схема взаимодействия оркестратора и пользователя" style="text;html=1;align=center;verticalAlign=middle;whiteSpace=wrap;rounded=0;" parent="1" vertex="1">
                    <mxGeometry x="230" y="60" width="390" height="30" as="geometry"/>
                </mxCell>
                <mxCell id="2" value="" style="html=1;points=[];perimeter=orthogonalPerimeter;outlineConnect=0;targetShapes=umlLifeline;portConstraint=eastwest;newEdgeStyle={&quot;edgeStyle&quot;:&quot;elbowEdgeStyle&quot;,&quot;elbow&quot;:&quot;vertical&quot;,&quot;curved&quot;:0,&quot;rounded&quot;:0};" vertex="1" parent="1">
                    <mxGeometry x="260" y="220" width="10" height="66" as="geometry"/>
                </mxCell>
                <mxCell id="3" value="" style="html=1;points=[];perimeter=orthogonalPerimeter;outlineConnect=0;targetShapes=umlLifeline;portConstraint=eastwest;newEdgeStyle={&quot;edgeStyle&quot;:&quot;elbowEdgeStyle&quot;,&quot;elbow&quot;:&quot;vertical&quot;,&quot;curved&quot;:0,&quot;rounded&quot;:0};" vertex="1" parent="1">
                    <mxGeometry x="580" y="221" width="10" height="66" as="geometry"/>
                </mxCell>
                <mxCell id="4" value="" style="html=1;points=[];perimeter=orthogonalPerimeter;outlineConnect=0;targetShapes=umlLifeline;portConstraint=eastwest;newEdgeStyle={&quot;edgeStyle&quot;:&quot;elbowEdgeStyle&quot;,&quot;elbow&quot;:&quot;vertical&quot;,&quot;curved&quot;:0,&quot;rounded&quot;:0};" vertex="1" parent="1">
                    <mxGeometry x="260" y="325" width="10" height="66" as="geometry"/>
                </mxCell>
                <mxCell id="5" value="" style="html=1;points=[];perimeter=orthogonalPerimeter;outlineConnect=0;targetShapes=umlLifeline;portConstraint=eastwest;newEdgeStyle={&quot;edgeStyle&quot;:&quot;elbowEdgeStyle&quot;,&quot;elbow&quot;:&quot;vertical&quot;,&quot;curved&quot;:0,&quot;rounded&quot;:0};" vertex="1" parent="1">
                    <mxGeometry x="580" y="326" width="10" height="66" as="geometry"/>
                </mxCell>
                <mxCell id="6" value="регистрация пользователя&lt;div&gt;&lt;div style=&quot;font-family: Menlo, Monaco, &amp;quot;Courier New&amp;quot;, monospace; font-size: 12px; line-height: 18px; white-space-collapse: preserve;&quot;&gt;POST /api/v1/register&lt;/div&gt;&lt;/div&gt;" style="html=1;verticalAlign=bottom;endArrow=block;edgeStyle=elbowEdgeStyle;elbow=vertical;curved=0;rounded=0;" edge="1" parent="1">
                    <mxGeometry relative="1" as="geometry">
                        <mxPoint x="271" y="230" as="sourcePoint"/>
                        <Array as="points">
                            <mxPoint x="356" y="230"/>
                        </Array>
                        <mxPoint x="581" y="230" as="targetPoint"/>
                        <mxPoint as="offset"/>
                    </mxGeometry>
                </mxCell>
                <mxCell id="7" value="&lt;font style=&quot;font-size: 10px;&quot;&gt;ответ от оркестратора&lt;/font&gt;" style="html=1;verticalAlign=bottom;endArrow=block;edgeStyle=elbowEdgeStyle;elbow=vertical;curved=0;rounded=0;" edge="1" parent="1">
                    <mxGeometry relative="1" as="geometry">
                        <mxPoint x="581" y="270" as="sourcePoint"/>
                        <Array as="points">
                            <mxPoint x="346.5" y="270"/>
                        </Array>
                        <mxPoint x="271" y="270" as="targetPoint"/>
                        <mxPoint as="offset"/>
                    </mxGeometry>
                </mxCell>
                <mxCell id="8" value="вход пользователя&lt;div&gt;&lt;div style=&quot;font-family: Menlo, Monaco, &amp;quot;Courier New&amp;quot;, monospace; font-size: 12px; line-height: 18px; white-space-collapse: preserve;&quot;&gt;POST /api/v1/login&lt;/div&gt;&lt;/div&gt;" style="html=1;verticalAlign=bottom;endArrow=block;edgeStyle=elbowEdgeStyle;elbow=vertical;curved=0;rounded=0;" edge="1" parent="1">
                    <mxGeometry relative="1" as="geometry">
                        <mxPoint x="271" y="340" as="sourcePoint"/>
                        <Array as="points">
                            <mxPoint x="356" y="340"/>
                        </Array>
                        <mxPoint x="581" y="340" as="targetPoint"/>
                        <mxPoint as="offset"/>
                    </mxGeometry>
                </mxCell>
                <mxCell id="9" value="&lt;font style=&quot;font-size: 10px;&quot;&gt;ответ от оркестратора&lt;/font&gt;&lt;div style=&quot;font-size: 10px;&quot;&gt;&lt;div style=&quot;font-family: Menlo, Monaco, &amp;quot;Courier New&amp;quot;, monospace; line-height: 18px; white-space-collapse: preserve;&quot;&gt;&lt;div style=&quot;&quot;&gt;&lt;font style=&quot;font-size: 10px;&quot;&gt;{&quot;token&quot;: &amp;lt;токен пользователя&amp;gt;}&lt;/font&gt;&lt;/div&gt;&lt;/div&gt;&lt;/div&gt;" style="html=1;verticalAlign=bottom;endArrow=block;edgeStyle=elbowEdgeStyle;elbow=vertical;curved=0;rounded=0;" edge="1" parent="1">
                    <mxGeometry relative="1" as="geometry">
                        <mxPoint x="581" y="380" as="sourcePoint"/>
                        <Array as="points">
                            <mxPoint x="346.5" y="380"/>
                        </Array>
                        <mxPoint x="271" y="380" as="targetPoint"/>
                        <mxPoint as="offset"/>
                    </mxGeometry>
                </mxCell>
            </root>
        </mxGraphModel>
    </diagram>
</mxfile>